<svg xmlns="http://www.w3.org/2000/svg" viewBox="0 0 100 100">
  <rect width="100" height="100" rx="20" fill="#0e0e14"/>
  <!-- Speech bubble -->
  <path d="M18 12 C12 12 8 16 8 22 L8 58 C8 64 12 68 18 68 L36 68 L30 84 L48 68 L82 68 C88 68 92 64 92 58 L92 22 C92 16 88 12 82 12 Z" fill="#c8956c"/>
  <!-- Waveform bars -->
  <rect x="28" y="32" width="7" height="20" rx="3.5" fill="#2a1a0a"/>
  <rect x="39" y="24" width="7" height="36" rx="3.5" fill="#2a1a0a"/>
  <rect x="50" y="20" width="7" height="40" rx="3.5" fill="#2a1a0a"/>
  <rect x="61" y="24" width="7" height="36" rx="3.5" fill="#2a1a0a"/>
  <rect x="17" y="36" width="7" height="14" rx="3.5" fill="#2a1a0a"/>
</svg>
